<svg width="17" height="16" viewBox="0 0 17 16" fill="none" xmlns="http://www.w3.org/2000/svg">
<path fill-rule="evenodd" clip-rule="evenodd" d="M1.92466 1.9191C2.30084 1.54403 2.81103 1.33331 3.34302 1.33331H5.34889C5.71816 1.33331 6.01751 1.63179 6.01751 1.99998C6.01751 2.36817 5.71816 2.66665 5.34889 2.66665H3.34302C3.16569 2.66665 2.99563 2.73688 2.87024 2.86191C2.74485 2.98693 2.6744 3.1565 2.6744 3.33331V5.33331C2.6744 5.7015 2.37505 5.99998 2.00578 5.99998C1.63651 5.99998 1.33716 5.7015 1.33716 5.33331V3.33331C1.33716 2.80288 1.54849 2.29417 1.92466 1.9191ZM10.0292 1.99998C10.0292 1.63179 10.3286 1.33331 10.6979 1.33331H12.7037C13.2357 1.33331 13.7459 1.54403 14.1221 1.9191C14.4983 2.29417 14.7096 2.80288 14.7096 3.33331V5.33331C14.7096 5.7015 14.4102 5.99998 14.041 5.99998C13.6717 5.99998 13.3723 5.7015 13.3723 5.33331V3.33331C13.3723 3.1565 13.3019 2.98693 13.1765 2.86191C13.0511 2.73688 12.8811 2.66665 12.7037 2.66665H10.6979C10.3286 2.66665 10.0292 2.36817 10.0292 1.99998ZM2.00578 9.99998C2.37505 9.99998 2.6744 10.2985 2.6744 10.6666V12.6666C2.6744 12.8435 2.74485 13.013 2.87024 13.1381C2.99563 13.2631 3.16569 13.3333 3.34302 13.3333H5.34889C5.71816 13.3333 6.01751 13.6318 6.01751 14C6.01751 14.3682 5.71816 14.6666 5.34889 14.6666H3.34302C2.81103 14.6666 2.30083 14.4559 1.92466 14.0809C1.54849 13.7058 1.33716 13.1971 1.33716 12.6666V10.6666C1.33716 10.2985 1.63651 9.99998 2.00578 9.99998ZM14.041 9.99998C14.4102 9.99998 14.7096 10.2985 14.7096 10.6666V12.6666C14.7096 13.1971 14.4983 13.7058 14.1221 14.0809C13.7459 14.4559 13.2357 14.6666 12.7037 14.6666H10.6979C10.3286 14.6666 10.0292 14.3682 10.0292 14C10.0292 13.6318 10.3286 13.3333 10.6979 13.3333H12.7037C12.8811 13.3333 13.0511 13.2631 13.1765 13.1381C13.3019 13.013 13.3723 12.8435 13.3723 12.6666V10.6666C13.3723 10.2985 13.6717 9.99998 14.041 9.99998Z" fill="#333333"/>
</svg>
