<svg width="22" height="22" viewBox="0 0 22 22" fill="none" xmlns="http://www.w3.org/2000/svg">
<path d="M8.79685 11.3113H3.68604V20.9993H18.314V11.3113H13.2002" stroke="white" stroke-width="2" stroke-linecap="round" stroke-linejoin="round"/>
<path d="M13.4262 11.3106H21V6.25317H1V11.3106H8.55027" stroke="white" stroke-width="2" stroke-linecap="round" stroke-linejoin="round"/>
<path d="M13.837 1C15.4016 1 16.6727 2.17735 16.6727 3.62662C16.6727 5.07588 15.4016 6.25323 13.837 6.25323H11.0012V3.62662C11.0012 2.17735 12.2723 1 13.837 1Z" stroke="white" stroke-width="2" stroke-linecap="round" stroke-linejoin="round"/>
<path d="M10.9985 6.25354H8.16278C6.59812 6.25354 5.32703 5.07619 5.32703 3.62692C5.32703 2.17766 6.59812 1.00031 8.16278 1.00031C9.72744 1.00031 10.9985 2.17766 10.9985 3.62692V6.25354Z" stroke="white" stroke-width="2" stroke-linecap="round" stroke-linejoin="round"/>
<path d="M13.2002 6.25354H8.79688V20.999H13.2002V6.25354Z" stroke="white" stroke-width="2" stroke-linecap="round" stroke-linejoin="round"/>
</svg>
