<svg width="24" height="24" viewBox="0 0 24 24" fill="none" xmlns="http://www.w3.org/2000/svg">
<g clip-path="url(#clip0_4069_433)">
<mask id="mask0_4069_433" style="mask-type:luminance" maskUnits="userSpaceOnUse" x="0" y="0" width="24" height="24">
<path d="M24 0H0V24H24V0Z" fill="white"/>
</mask>
<g mask="url(#mask0_4069_433)">
<path fill-rule="evenodd" clip-rule="evenodd" d="M3.81834 4.81566V9.36152H8.36419C8.86424 9.36152 9.27336 9.77064 9.27336 10.2707C9.27336 10.7707 8.86424 11.1799 8.36419 11.1799H2.90917C2.40913 11.1799 2 10.7707 2 10.2707V4.81566C2 4.31562 2.40913 3.90649 2.90917 3.90649C3.40921 3.90649 3.81834 4.31562 3.81834 4.81566Z" fill="white"/>
<path fill-rule="evenodd" clip-rule="evenodd" d="M7.76418 6.9431C7.76418 6.9431 7.75509 6.95219 7.746 6.96128L3.53654 10.9253C3.17287 11.2707 2.6001 11.2526 2.25461 10.8889C1.90913 10.5252 1.92731 9.95245 2.29098 9.60697L6.49135 5.65207C7.88238 4.26104 9.69163 3.36097 11.6372 3.08821C13.592 2.81546 15.574 3.17913 17.3014 4.12467C19.0288 5.0793 20.4017 6.56125 21.2017 8.3614C22.0109 10.1616 22.2109 12.1708 21.7745 14.0983C21.3381 16.0166 20.2926 17.7531 18.7833 19.026C17.2832 20.2988 15.4012 21.0534 13.4374 21.1716C11.4736 21.2898 9.51888 20.7625 7.87328 19.6715C6.22769 18.5805 4.99121 16.9894 4.32752 15.1256C4.16387 14.6529 4.40935 14.1346 4.88211 13.9619C5.35488 13.7982 5.87311 14.0437 6.04585 14.5165C6.57317 16.0075 7.56417 17.2804 8.88246 18.1532C10.1917 19.026 11.7554 19.4442 13.3283 19.3533C14.9012 19.2624 16.4013 18.6623 17.6105 17.644C18.8106 16.6258 19.6561 15.2438 20.0016 13.7073C20.3471 12.1708 20.1925 10.5616 19.547 9.12511C18.9015 7.68862 17.8014 6.4976 16.4195 5.7339C15.0375 4.9702 13.4465 4.67926 11.8827 4.89746C10.319 5.11566 8.87337 5.843 7.75509 6.96128L7.76418 6.9431Z" fill="white"/>
<path fill-rule="evenodd" clip-rule="evenodd" d="M12.6828 7.54321C13.1828 7.54321 13.592 7.95234 13.592 8.45238V13.3437L16.7286 14.9075C17.1741 15.1348 17.3559 15.6803 17.1377 16.1258C16.9104 16.5713 16.3649 16.7531 15.9194 16.5349L12.2828 14.7166C11.9736 14.562 11.7827 14.2438 11.7827 13.9074V8.45238C11.7827 7.95234 12.1918 7.54321 12.6919 7.54321H12.6828Z" fill="white"/>
</g>
</g>
<defs>
<clipPath id="clip0_4069_433">
<rect width="24" height="24" fill="white"/>
</clipPath>
</defs>
</svg>
