<svg width="22" height="22" viewBox="0 0 22 22" fill="none" xmlns="http://www.w3.org/2000/svg">
<g id="Frame" clip-path="url(#clip0_1060_5721)">
<g id="Group">
<path id="Vector" d="M18.9 21.9C18.8 21.9 18.7 21.9 18.6 21.9C15.4 21.5 12.2 20.4 9.5 18.7C7 17.1 4.8 14.9 3.2 12.4C1.5 9.7 0.4 6.5 0 3.3C0 2.9 0 2.4 0.2 2C0.3 1.6 0.5 1.3 0.8 1C1.1 0.7 1.4 0.4 1.8 0.3C2.2 0.1 2.6 0 3 0H6C6.7 0 7.4 0.3 8 0.7C8.6 1.2 8.9 1.8 9 2.6C9.1 3.5 9.3 4.4 9.6 5.2C9.8 5.7 9.8 6.3 9.7 6.9C9.6 7.4 9.4 7.9 9 8.3L8.2 9.1C9.4 10.9 10.9 12.5 12.8 13.7L13.5 13C13.9 12.6 14.4 12.3 15 12.2C15.6 12.1 16.1 12.1 16.7 12.3C17.5 12.6 18.4 12.8 19.3 12.9C20 13 20.7 13.4 21.2 13.9C21.7 14.5 21.9 15.2 21.9 15.9V18.9C21.9 19.3 21.8 19.7 21.6 20.1C21.4 20.5 21.2 20.8 20.9 21.1C20.6 21.4 20.2 21.6 19.8 21.7C19.5 21.9 19.2 21.9 18.9 21.9ZM6 2H3C2.9 2 2.7 2 2.6 2.1C2.5 2.1 2.4 2.2 2.3 2.3C2.2 2.4 2.1 2.5 2.1 2.7C2 2.8 2 3 2 3.1C2.3 6 3.3 8.8 4.9 11.3C6.4 13.6 8.3 15.6 10.6 17C13.1 18.6 15.9 19.6 18.8 19.9C18.9 19.9 19.1 19.9 19.2 19.9C19.3 19.9 19.5 19.8 19.6 19.7C19.7 19.6 19.8 19.5 19.8 19.4C19.9 19.3 19.9 19.1 19.9 19V16C19.9 15.8 19.8 15.5 19.7 15.3C19.5 15.1 19.3 15 19.1 15C18.1 14.9 17.1 14.6 16.1 14.2C15.9 14.1 15.7 14.1 15.5 14.2C15.3 14.2 15.1 14.3 15 14.5L13.7 15.8C13.4 16.1 12.9 16.2 12.5 16C9.8 14.5 7.6 12.3 6.1 9.6C5.9 9 6 8.5 6.3 8.2L7.6 6.9C7.7 6.8 7.8 6.6 7.9 6.4C7.9 6.2 7.9 6 7.9 5.8C7.5 4.8 7.3 3.8 7.1 2.8C7.1 2.6 6.9 2.3 6.8 2.2C6.5 2.1 6.3 2 6 2Z" fill="#8E9094"/>
</g>
</g>
<defs>
<clipPath id="clip0_1060_5721">
<rect width="21.9" height="21.9" fill="white"/>
</clipPath>
</defs>
</svg>
