<svg width="16" height="16" viewBox="0 0 16 16" fill="none" xmlns="http://www.w3.org/2000/svg">
<g clip-path="url(#clip0_6052_757)">
<path d="M0 8.52734C0 8.17346 0 7.81958 0 7.46506C0.010133 7.42011 0.0234326 7.3758 0.0291324 7.33085C0.0652312 7.058 0.0829639 6.78262 0.136162 6.51357C0.528182 4.53209 1.52122 2.91462 3.1121 1.67065C4.14503 0.862863 5.31222 0.344386 6.60735 0.12408C6.89297 0.0753343 7.18113 0.041149 7.46802 0C7.82204 0 8.17606 0 8.53072 0C8.72071 0.0234233 8.91134 0.0430482 9.1007 0.0709029C10.646 0.298172 12.0374 0.887552 13.1995 1.9321C15.6092 4.09844 16.4782 6.79085 15.7492 9.9473C15.304 11.8769 14.2052 13.4101 12.5826 14.5433C10.696 15.8614 8.60228 16.2779 6.35149 15.8221C4.67068 15.4815 3.25016 14.6503 2.0931 13.3848C1.05446 12.2491 0.393287 10.9216 0.125396 9.40286C0.0747308 9.11292 0.0417986 8.81918 0 8.52734ZM8.0114 14.7465C11.7372 14.7396 14.7549 11.7161 14.753 7.9924C14.7505 4.26304 11.7188 1.2389 7.9886 1.24587C4.26282 1.25283 1.24509 4.27696 1.24699 8C1.24953 11.7294 4.28119 14.7535 8.0114 14.7465Z" fill="black"/>
<path d="M7.37627 6.18057C7.37627 5.58233 7.37564 4.98345 7.37627 4.38521C7.3769 3.98764 7.63213 3.71353 7.99755 3.71289C8.3636 3.71163 8.62263 3.98574 8.62326 4.38077C8.62453 5.45318 8.62516 6.52496 8.622 7.59736C8.622 7.69485 8.64796 7.75563 8.72903 7.8164C9.43137 8.33678 10.1286 8.86412 10.8278 9.38766C11.045 9.55036 11.1369 9.76876 11.0849 10.0302C11.0355 10.2796 10.8722 10.4417 10.6239 10.5075C10.4421 10.5557 10.2692 10.5221 10.1204 10.4113C9.29014 9.79282 8.46177 9.17179 7.63466 8.54949C7.45164 8.41211 7.37437 8.22093 7.375 7.99239C7.37754 7.38845 7.37564 6.78514 7.37564 6.1812L7.37627 6.18057Z" fill="black"/>
</g>
<defs>
<clipPath id="clip0_6052_757">
<rect width="16" height="16" fill="white"/>
</clipPath>
</defs>
</svg>
