<svg width="75" height="38" viewBox="0 0 75 38" fill="none" xmlns="http://www.w3.org/2000/svg">
<g clip-path="url(#clip0_6147_1819)">
<path d="M54.1808 16.3515C53.6403 16.3515 53.1819 15.9335 52.9985 15.3492H52.5448C52.429 15.3492 52.2553 15.2114 52.2553 14.7886C52.2553 14.3658 52.429 14.228 52.5448 14.228H52.9985C53.1819 13.639 53.6403 13.2209 54.1808 13.2209H58.5338C57.477 13.9382 56.7 15.0261 56.4008 16.2945C55.4356 16.3278 54.6972 16.3468 54.176 16.3468M66.487 17.4679C66.487 20.1663 64.2574 22.3563 61.5066 22.3563C58.7558 22.3563 56.5262 20.1663 56.5262 17.4679C56.5262 14.7696 58.7558 12.5796 61.5066 12.5796C64.2574 12.5796 66.487 14.7696 66.487 17.4679ZM61.8396 16.1093C62.1147 16.171 62.356 16.3135 62.5442 16.5083L64.8655 15.1971C64.1898 14.2375 63.0992 13.5819 61.8444 13.4822V16.1093H61.8396ZM58.1574 15.1924L60.4787 16.5083C60.6669 16.3135 60.9082 16.1758 61.1833 16.1093V13.4822C59.9285 13.5819 58.8379 14.2375 58.1622 15.1971L58.1574 15.1924ZM60.1457 17.8622C60.0685 17.6057 60.0637 17.3302 60.1457 17.0641L57.8244 15.7577C57.2887 16.8741 57.3225 18.1283 57.8341 19.1829L60.1505 17.8622H60.1457ZM61.1447 21.4442V18.8029C60.9372 18.7506 60.7489 18.6508 60.5897 18.5178C60.5607 18.4941 60.5318 18.4656 60.5028 18.4371L58.1767 19.7577C58.225 19.8242 58.2732 19.886 58.3263 19.9525C59.002 20.7838 60.0058 21.3397 61.1495 21.4394M62.2305 17.4632C62.2305 17.0689 61.9072 16.7553 61.5066 16.7553C61.1061 16.7553 60.7827 17.0736 60.7827 17.4632C60.7827 17.8527 61.1061 18.171 61.5066 18.171C61.9072 18.171 62.2305 17.8527 62.2305 17.4632ZM64.8365 19.7625L62.5104 18.4418C62.3367 18.6128 62.1147 18.7411 61.8686 18.8029V21.4442C63.0944 21.3397 64.1657 20.6983 64.8413 19.7625H64.8365ZM65.2033 19.1449C65.6473 18.228 65.7679 16.9264 65.1888 15.7482L62.8675 17.0641C62.9399 17.2922 62.9496 17.5677 62.8724 17.8242L65.1985 19.1401L65.2033 19.1449ZM58.5387 15.1164L60.4304 16.1853C60.5752 16.0665 60.7393 15.9762 60.913 15.9145V13.772C59.9768 13.9097 59.1274 14.3895 58.5387 15.1164ZM62.1002 13.772V15.9192C62.2739 15.981 62.4284 16.0665 62.5732 16.1853L64.4697 15.1164C63.8762 14.3848 63.0364 13.9097 62.1002 13.772ZM65.2998 17.0784C65.266 16.7506 65.184 16.4276 65.0633 16.1235L63.1619 17.1972C63.1764 17.2874 63.186 17.3729 63.186 17.4632C63.186 17.5012 63.186 17.5344 63.186 17.5724C63.7217 17.4299 64.2864 17.2922 64.8606 17.1734C65.0006 17.1449 65.1502 17.1116 65.3046 17.0784M61.9699 17.4632C61.9699 17.2114 61.7624 17.0071 61.5066 17.0071C61.2508 17.0071 61.0433 17.2114 61.0433 17.4632C61.0433 17.715 61.2508 17.9192 61.5066 17.9192C61.7624 17.9192 61.9699 17.715 61.9699 17.4632ZM57.9547 18.8171L59.8417 17.7387C59.8079 17.5582 59.8079 17.3729 59.8417 17.1876L57.9499 16.1188C57.6073 16.9834 57.6073 17.943 57.9547 18.8124V18.8171ZM68.4656 8.72209C68.4801 8.90261 68.4849 9.02613 68.5091 9.19715C68.4125 9.31116 68.2581 9.38242 68.0892 9.39192C67.8093 9.40618 67.568 9.25891 67.5584 8.90736C67.5487 8.58907 67.7707 8.30879 68.4318 8.20428L68.4705 8.72209H68.4656ZM62.4429 7.39667C62.5201 7.67696 62.5008 7.90024 62.1919 8.0095L61.4825 8.27553C61.4632 8.15202 61.4535 8.02375 61.4535 7.89074C61.4535 7.16865 61.8444 7.05938 61.9747 7.04513C62.1919 7.02613 62.3705 7.14489 62.438 7.39192M55.7396 9.78622C55.5948 9.45843 55.4115 8.76485 55.2956 8.28979L54.6972 5.64846L53.3073 5.84323C53.3411 6.038 53.288 6.38005 53.1384 6.81235C52.8489 7.64846 52.3759 8.99287 52.0043 9.79097H52.8778C52.9213 9.53919 52.9937 9.27791 53.1191 8.94537L54.4173 8.91211C54.4752 9.1639 54.5621 9.56295 54.5814 9.79097H55.7396V9.78622ZM58.0271 6.7981C57.7762 6.7886 57.3997 6.91211 57.0233 7.47268C57.033 7.25891 57.0137 7.06888 56.9702 6.92637L56.1064 6.97862C56.1691 7.33967 56.1691 7.71496 56.145 8.11401L56.1209 8.60333C56.0967 9.00238 56.0774 9.43468 56.0099 9.79573H57.004C56.9702 9.42993 56.9847 8.99287 57.004 8.59858C57.033 8.11877 57.1488 7.83373 57.3418 7.63895C57.5445 7.42993 57.8148 7.38717 57.9982 7.40143L58.0271 6.8076V6.7981ZM59.0068 9.80998C59.6148 9.80998 60.3629 9.53919 60.3773 8.84086C60.387 8.34679 60.0154 8.14252 59.7982 8.04276C59.5811 7.94299 59.3494 7.83373 59.2384 7.78147C59.1371 7.73397 58.9296 7.65796 58.9489 7.42993C58.9682 7.21615 59.2143 7.11164 59.4894 7.11164C59.7162 7.11164 59.9382 7.1734 60.1071 7.26366L60.1167 6.79335C59.9913 6.74584 59.7886 6.70309 59.4749 6.70309C59.2191 6.70309 58.8958 6.75059 58.64 6.89311C58.3505 7.05463 58.1429 7.31591 58.1236 7.59145C58.0947 8 58.3263 8.19477 58.6497 8.35629C58.8717 8.46556 59.084 8.57007 59.2143 8.64133C59.3929 8.73159 59.5473 8.84561 59.5328 9.04988C59.5183 9.25891 59.3253 9.39668 58.9875 9.39668C58.7124 9.39668 58.3118 9.23991 58.0416 8.99763L58.0319 9.6342C58.2684 9.74822 58.6545 9.81948 59.002 9.81948M62.1533 9.80998C62.7179 9.80998 63.0654 9.6152 63.3405 9.32067L63.1426 9.07363C62.9882 9.18765 62.7565 9.36342 62.3753 9.35867C61.9699 9.34917 61.6997 9.05463 61.5694 8.64133L63.3501 7.98575C63.2922 7.40618 63.0944 7.07363 62.8096 6.87886C62.5925 6.72684 62.327 6.66033 62.0423 6.66033C61.4004 6.66033 60.5463 7.10689 60.5656 8.28029C60.5897 9.45368 61.5018 9.81473 62.1485 9.81473M66.4532 9.78622C66.3953 9.42518 66.3712 9.06413 66.3567 8.66508L66.3084 7.65321C66.2891 7.11639 65.9754 6.7981 65.4446 6.7981C65.155 6.7981 64.8124 6.88836 64.518 7.25416C64.5084 7.17815 64.4649 6.92162 64.4118 6.81235L63.6252 6.7791C63.6928 7.15439 63.7121 7.52969 63.7314 7.92399L63.7459 8.66508C63.7603 9.06413 63.7507 9.42518 63.7169 9.78622H64.711C64.6531 9.42518 64.629 9.06413 64.6145 8.66508L64.5904 7.80998C64.5807 7.50594 64.8124 7.31116 65.0489 7.31116C65.3239 7.31116 65.4591 7.48694 65.4687 7.75772L65.5025 8.66508C65.517 9.06413 65.5218 9.42518 65.4929 9.78622H66.4484H66.4532ZM69.5225 9.78622C69.4019 9.50119 69.344 9.11639 69.315 8.72209L69.2571 8.11401C69.204 7.39192 68.8951 6.90261 67.6838 6.90261C67.4763 6.90261 67.1675 6.93587 66.9213 6.98812L66.9648 7.53919C67.2109 7.39192 67.4667 7.28266 67.7755 7.28266C68.0844 7.28266 68.3788 7.41093 68.4029 7.88599C68.0892 7.91924 67.7948 7.97625 67.4667 8.11877C67.0999 8.28029 66.7138 8.57482 66.7524 9.07363C66.791 9.6247 67.2157 9.86698 67.7514 9.86698C68.1568 9.86698 68.4367 9.66271 68.5863 9.51069C68.6152 9.6152 68.6538 9.71496 68.6973 9.79097H69.5225V9.78622ZM70.9848 9.78622C70.8979 9.42518 70.8545 9.06413 70.811 8.66508L70.4587 5.84323L69.5611 5.70071C69.648 6.07126 69.6818 6.36105 69.73 6.75534L69.9375 8.66508C69.981 9.06413 70.0148 9.42518 70.0099 9.78622H70.9799H70.9848ZM53.9444 6.64133L54.3208 8.4038L53.3073 8.43705L53.9444 6.64133ZM73.6776 2.54632C74.5318 5.93824 74.9903 9.22565 75 11.2684C75.0096 13.4537 74.6959 15.5914 74.0637 17.62C73.4557 19.5772 72.5484 21.4299 71.366 23.1306C70.2078 24.7981 68.7745 26.3325 67.1144 27.6865C65.5508 28.9596 63.437 30.3563 61.5066 31.1734C59.5762 30.3563 57.4625 28.9596 55.8989 27.6865C54.2387 26.3325 52.8054 24.7981 51.6472 23.1306C50.4649 21.4299 49.5576 19.5772 48.9495 17.62C48.3173 15.5914 48.0036 13.4584 48.0133 11.2684C48.0229 9.22565 48.4814 5.93349 49.3356 2.54632C53.0371 0.921615 57.1054 0 61.5018 0C65.8982 0 69.9713 0.921615 73.668 2.54632H73.6776ZM74.0492 13.2257C74.1072 12.5843 74.1313 11.9335 74.1313 11.2732C74.1216 9.37292 73.6342 5.90024 72.9393 3.1639C72.3264 2.90261 71.7038 2.66508 71.0716 2.44656C71.7183 5.2019 72.2588 8.21853 72.3843 10.1758C72.447 11.1259 72.4422 12.0713 72.3988 12.9644H71.8438C71.8872 11.9192 71.8534 10.9549 71.7907 10.1045C71.6459 8.14252 71.1054 4.99287 70.4443 2.23278C67.5728 1.31591 64.5807 0.845606 61.5114 0.845606C58.4421 0.845606 55.4501 1.31116 52.5738 2.23278C51.9078 4.99287 51.3721 8.13777 51.2274 10.1045C51.0247 12.7933 51.1357 16.6508 53.0419 20.6651C52.9116 20.7363 52.762 20.8028 52.6269 20.8646C51.9078 19.3967 51.377 17.8195 51.0391 16.247C50.6869 14.5843 50.489 12.4086 50.6289 10.171C50.7544 8.20903 51.2949 5.19715 51.9416 2.44181C51.3142 2.66033 50.6917 2.89786 50.0788 3.15914C49.3838 5.89549 48.8964 9.36817 48.8868 11.2684C48.8771 13.3872 49.1812 15.4347 49.7844 17.3634C50.238 18.8171 50.8606 20.209 51.6472 21.5202C52.844 21.1591 53.954 20.4893 54.8758 19.8147C55.4404 19.4014 55.9375 18.8931 56.3525 18.3895C56.4876 19.1164 56.782 19.791 57.197 20.3753C55.5369 21.3017 53.7369 21.981 52.1105 22.2518C52.1974 22.38 52.2794 22.5083 52.3711 22.6366C53.4859 24.2423 54.8613 25.715 56.4587 27.0166C57.9161 28.2043 59.5762 29.2542 61.3811 30.1425C59.6004 29.0309 58.114 27.8385 56.7724 26.5273C55.4259 25.2114 54.2918 23.7672 53.3749 22.2328C53.5486 22.19 53.6452 22.1568 53.8044 22.1093C56.0195 25.943 58.9247 28.228 61.5114 29.8907C64.214 28.152 67.264 25.734 69.5129 21.5819C70.589 19.5962 71.2019 17.6342 71.5301 15.81L72.0706 15.772C72.0417 15.9335 72.0079 16.0903 71.9789 16.2423C71.5687 18.1615 70.8738 20.076 69.8989 21.8005C68.9386 23.4964 67.7224 25.0879 66.2505 26.5273C64.9089 27.8385 63.4225 29.0309 61.6417 30.1425C63.4467 29.2542 65.1116 28.2043 66.569 27.0166C68.1664 25.715 69.5418 24.2423 70.6566 22.6366C71.7859 21.0071 72.6594 19.2304 73.2433 17.3587C73.4412 16.7221 73.6053 16.0713 73.7404 15.4109L69.1461 15.715C69.1027 15.962 68.9337 16.2328 68.5284 16.323L66.7042 16.7506C66.5015 15.2874 65.6666 14.019 64.4842 13.2162H74.0637L74.0492 13.2257Z" fill="white"/>
<path d="M37.4686 0H37.0247V31.1734H37.4686V0Z" fill="white"/>
<path d="M1.29341 37.2162C1.29341 37.0784 1.24998 36.9644 1.15828 36.8694C1.06659 36.7744 0.955594 36.7316 0.820467 36.7316C0.685341 36.7316 0.574344 36.7791 0.487477 36.8694C0.40061 36.9596 0.357177 37.0737 0.357177 37.2067C0.357177 37.3444 0.40061 37.4585 0.492303 37.5535C0.57917 37.6485 0.694993 37.6912 0.830119 37.6912C0.965246 37.6912 1.07624 37.6437 1.16311 37.5535C1.24998 37.4632 1.29341 37.3492 1.29341 37.2162ZM1.65053 37.2114C1.65053 37.43 1.57331 37.62 1.41406 37.772C1.25963 37.924 1.06176 38 0.825293 38C0.588822 38 0.390958 37.924 0.236528 37.772C0.0820979 37.62 0.00488281 37.4347 0.00488281 37.2114C0.00488281 36.9882 0.0820979 36.8029 0.241354 36.6461C0.40061 36.4941 0.598474 36.4133 0.834945 36.4133C1.07142 36.4133 1.26928 36.4893 1.42371 36.6414C1.57814 36.7934 1.66018 36.9787 1.66018 37.1972L1.65053 37.2114Z" fill="white"/>
<path d="M3.13695 36.7506H2.29723V37.0784H3.0356V37.3824H2.29723V37.9762H1.95459V36.4465H3.13695V36.7506Z" fill="white"/>
<path d="M4.59434 36.7506H3.7498V37.0784H4.493V37.3824H3.7498V37.9762H3.41199V36.4465H4.59434V36.7506Z" fill="white"/>
<path d="M5.22655 36.4465H4.88391V37.9762H5.22655V36.4465Z" fill="white"/>
<path d="M6.97841 37.7293C6.89154 37.8195 6.79985 37.886 6.70333 37.9335C6.60681 37.981 6.48616 38 6.34621 38C6.11939 38 5.92635 37.924 5.77675 37.772C5.62714 37.62 5.54993 37.4347 5.54993 37.2114C5.54993 36.9834 5.62714 36.7981 5.77675 36.6461C5.92635 36.4941 6.12421 36.4181 6.35586 36.4181C6.49581 36.4181 6.61163 36.4371 6.70815 36.4798C6.80467 36.5179 6.89154 36.5796 6.96875 36.6556L6.75159 36.9026C6.62129 36.7886 6.49099 36.7316 6.35586 36.7316C6.22556 36.7316 6.11939 36.7791 6.03252 36.8694C5.94565 36.9597 5.90222 37.0737 5.90222 37.2067C5.90222 37.3445 5.94565 37.4585 6.0277 37.5535C6.11456 37.6485 6.22073 37.6912 6.35103 37.6912C6.43307 37.6912 6.50546 37.677 6.5682 37.6485C6.63094 37.62 6.69368 37.5725 6.76124 37.5107L6.97841 37.7293Z" fill="white"/>
<path d="M7.6057 36.4465H7.26306V37.9762H7.6057V36.4465Z" fill="white"/>
<path d="M8.88461 37.335L8.67709 36.8409L8.46958 37.335H8.88461ZM9.50715 37.9763H9.15003L9.01008 37.6343H8.35375L8.2138 37.9763H7.86633L8.53231 36.4371H8.846L9.51198 37.9763H9.50715Z" fill="white"/>
<path d="M10.8632 37.9762H9.74841V36.4465H10.0911V37.6674H10.8632V37.9762Z" fill="white"/>
<path d="M12.9674 36.7506H12.1277V37.0784H12.8709V37.3824H12.1277V37.9762H11.785V36.4465H12.9674V36.7506Z" fill="white"/>
<path d="M13.9566 37.335L13.7491 36.8409L13.5416 37.335H13.9566ZM14.5792 37.9763H14.2221L14.0821 37.6343H13.4258L13.2858 37.9763H12.9384L13.6043 36.4371H13.918L14.584 37.9763H14.5792Z" fill="white"/>
<path d="M15.8002 37.5154C15.8002 37.4014 15.7182 37.3444 15.5493 37.3444H15.1535V37.6817H15.5589C15.7182 37.6817 15.8002 37.6247 15.8002 37.5154ZM15.7134 36.9026C15.7134 36.8456 15.6941 36.8076 15.6554 36.7838C15.6168 36.7553 15.5638 36.7411 15.4914 36.7411H15.1535V37.0641H15.4672C15.6313 37.0641 15.7134 37.0119 15.7134 36.9026ZM16.138 37.5582C16.138 37.6959 16.085 37.8005 15.9836 37.8717C15.8823 37.943 15.7375 37.981 15.5589 37.981H14.8206V36.4513H15.5396C15.6989 36.4513 15.8244 36.4893 15.916 36.5606C16.0077 36.6318 16.056 36.7268 16.056 36.8503C16.056 36.9976 15.9884 37.1069 15.8533 37.1829C15.9498 37.2209 16.0222 37.2684 16.0705 37.3254C16.1187 37.3824 16.1429 37.4632 16.1429 37.5582H16.138Z" fill="white"/>
<path d="M17.3686 36.9738C17.3686 36.8978 17.3445 36.8456 17.2962 36.8076C17.248 36.7696 17.1852 36.7506 17.0984 36.7506H16.7606V37.1876H17.108C17.1901 37.1876 17.2528 37.1686 17.3011 37.1306C17.3493 37.0926 17.3734 37.0404 17.3734 36.9738H17.3686ZM17.7595 37.9762H17.359L17.026 37.4869H16.7557V37.9762H16.4131V36.4465H17.1225C17.3059 36.4465 17.4507 36.494 17.552 36.5843C17.6534 36.6746 17.7064 36.7981 17.7064 36.9548C17.7064 37.1924 17.5954 37.3539 17.3734 37.4347L17.7547 37.981L17.7595 37.9762Z" fill="white"/>
<path d="M18.3821 36.4465H18.0394V37.9762H18.3821V36.4465Z" fill="white"/>
<path d="M20.1339 37.7293C20.0471 37.8195 19.9554 37.886 19.8588 37.9335C19.7623 37.981 19.6417 38 19.5017 38C19.2749 38 19.0819 37.924 18.9323 37.772C18.7827 37.62 18.7054 37.4347 18.7054 37.2114C18.7054 36.9834 18.7827 36.7981 18.9323 36.6461C19.0867 36.4941 19.2797 36.4181 19.5114 36.4181C19.6513 36.4181 19.7672 36.4371 19.8637 36.4798C19.9602 36.5179 20.0471 36.5796 20.1243 36.6556L19.9071 36.9026C19.7768 36.7886 19.6465 36.7316 19.5114 36.7316C19.3811 36.7316 19.2749 36.7791 19.188 36.8694C19.1012 36.9597 19.0577 37.0737 19.0577 37.2067C19.0577 37.3445 19.1012 37.4585 19.1832 37.5535C19.2701 37.6485 19.3763 37.6912 19.5066 37.6912C19.5886 37.6912 19.661 37.677 19.7237 37.6485C19.7865 37.62 19.8492 37.5725 19.9168 37.5107L20.1339 37.7293Z" fill="white"/>
<path d="M22.4359 37.7293C22.3491 37.8195 22.2574 37.886 22.1608 37.9335C22.0643 37.981 21.9437 38 21.8037 38C21.5769 38 21.3839 37.924 21.2343 37.772C21.0847 37.62 21.0074 37.4347 21.0074 37.2114C21.0074 36.9834 21.0847 36.7981 21.2343 36.6461C21.3887 36.4941 21.5817 36.4181 21.8134 36.4181C21.9533 36.4181 22.0692 36.4371 22.1657 36.4798C22.2622 36.5179 22.3491 36.5796 22.4263 36.6556L22.2091 36.9026C22.0788 36.7886 21.9485 36.7316 21.8134 36.7316C21.6831 36.7316 21.5769 36.7791 21.49 36.8694C21.4032 36.9597 21.3597 37.0737 21.3597 37.2067C21.3597 37.3445 21.4032 37.4585 21.4852 37.5535C21.5721 37.6485 21.6783 37.6912 21.8086 37.6912C21.8906 37.6912 21.963 37.677 22.0257 37.6485C22.0885 37.62 22.1512 37.5725 22.2188 37.5107L22.4359 37.7293Z" fill="white"/>
<path d="M23.6038 37.335L23.3963 36.8409L23.1888 37.335H23.6038ZM24.2215 37.9763H23.8644L23.7244 37.6343H23.0681L22.9282 37.9763H22.5807L23.2467 36.4371H23.5604L24.2263 37.9763H24.2215Z" fill="white"/>
<path d="M25.4134 36.9738C25.4134 36.8978 25.3893 36.8456 25.341 36.8076C25.2928 36.7696 25.23 36.7506 25.1432 36.7506H24.8054V37.1876H25.1528C25.2349 37.1876 25.2976 37.1686 25.3459 37.1306C25.3941 37.0926 25.4182 37.0404 25.4182 36.9738H25.4134ZM25.8043 37.9762H25.4038L25.0708 37.4869H24.8005V37.9762H24.4579V36.4465H25.1673C25.3507 36.4465 25.4955 36.494 25.5968 36.5843C25.6982 36.6746 25.7512 36.7981 25.7512 36.9548C25.7512 37.1924 25.6402 37.3539 25.4182 37.4347L25.7995 37.981L25.8043 37.9762Z" fill="white"/>
<path d="M27.2473 37.9762H26.0649V36.4465H27.2376V36.7458H26.4076V37.0546H27.1363V37.3539H26.4076V37.6769H27.2473V37.9762Z" fill="white"/>
<path d="M29.1006 36.9881C29.1006 36.9073 29.0764 36.8503 29.0282 36.8123C28.9799 36.7696 28.9123 36.7506 28.8255 36.7506H28.56V37.2161H28.8303C28.9123 37.2161 28.9799 37.1924 29.0282 37.1496C29.0764 37.1069 29.1006 37.0499 29.1006 36.9833V36.9881ZM29.448 36.9786C29.448 37.1496 29.3901 37.2826 29.2695 37.3776C29.1488 37.4727 28.9992 37.5154 28.8207 37.5154H28.56V37.9762H28.2174V36.4465H28.8496C29.033 36.4465 29.1778 36.494 29.2839 36.5938C29.3901 36.6888 29.4432 36.8171 29.4432 36.9738L29.448 36.9786Z" fill="white"/>
<path d="M30.4373 37.335L30.2298 36.8409L30.0223 37.335H30.4373ZM31.055 37.9763H30.6979L30.5579 37.6343H29.9016L29.7617 37.9763H29.4142L30.0802 36.4371H30.3939L31.0598 37.9763H31.055Z" fill="white"/>
<path d="M32.247 36.9738C32.247 36.8978 32.2229 36.8456 32.1747 36.8076C32.1264 36.7696 32.0637 36.7506 31.9768 36.7506H31.639V37.1876H31.9864C32.0685 37.1876 32.1312 37.1686 32.1795 37.1306C32.2277 37.0926 32.2519 37.0404 32.2519 36.9738H32.247ZM32.6379 37.9762H32.2374L31.9044 37.4869H31.6341V37.9762H31.2915V36.4465H32.0009C32.1843 36.4465 32.3291 36.494 32.4304 36.5843C32.5318 36.6746 32.5849 36.7981 32.5849 36.9548C32.5849 37.1924 32.4739 37.3539 32.2519 37.4347L32.6331 37.981L32.6379 37.9762Z" fill="white"/>
<path d="M34.076 36.7553H33.6031V37.9762H33.2604V36.7553H32.7875V36.4465H34.076V36.7553Z" fill="white"/>
<path d="M35.7169 37.9762H35.4273L34.6745 37.0024V37.9762H34.3367V36.4465H34.6552L35.3839 37.3871V36.4465H35.7169V37.9762Z" fill="white"/>
<path d="M37.2756 37.9762H36.0933V36.4465H37.2611V36.7458H36.4311V37.0546H37.1646V37.3539H36.4311V37.6769H37.2756V37.9762Z" fill="white"/>
<path d="M38.5255 36.9738C38.5255 36.8978 38.5014 36.8456 38.4532 36.8076C38.4049 36.7696 38.3422 36.7506 38.2553 36.7506H37.9175V37.1876H38.2649C38.347 37.1876 38.4097 37.1686 38.458 37.1306C38.5062 37.0926 38.5304 37.0404 38.5304 36.9738H38.5255ZM38.9213 37.9762H38.5207L38.1877 37.4869H37.9175V37.9762H37.5748V36.4465H38.2842C38.4676 36.4465 38.6124 36.494 38.7138 36.5843C38.8151 36.6746 38.8682 36.7981 38.8682 36.9548C38.8682 37.1924 38.7572 37.3539 38.5352 37.4347L38.9164 37.981L38.9213 37.9762Z" fill="white"/>
<path d="M41.0737 37.2162C41.0737 37.0784 41.0302 36.9644 40.9386 36.8694C40.8469 36.7744 40.7359 36.7316 40.6007 36.7316C40.4656 36.7316 40.3546 36.7791 40.2678 36.8694C40.1809 36.9596 40.1374 37.0737 40.1374 37.2067C40.1374 37.3444 40.1809 37.4585 40.2726 37.5535C40.3594 37.6485 40.4753 37.6912 40.6104 37.6912C40.7455 37.6912 40.8565 37.6437 40.9434 37.5535C41.0302 37.4632 41.0737 37.3492 41.0737 37.2162ZM41.4308 37.2114C41.4308 37.43 41.3536 37.62 41.1943 37.772C41.0399 37.924 40.842 38 40.6056 38C40.3691 38 40.1712 37.924 40.0168 37.772C39.8624 37.62 39.7852 37.4347 39.7852 37.2114C39.7852 36.9882 39.8624 36.8029 40.0216 36.6461C40.1809 36.4941 40.3787 36.4133 40.6152 36.4133C40.8517 36.4133 41.0496 36.4893 41.204 36.6414C41.3584 36.7934 41.4405 36.9787 41.4405 37.1972L41.4308 37.2114Z" fill="white"/>
<path d="M42.9123 36.7506H42.0726V37.0784H42.8158V37.3824H42.0726V37.9762H41.73V36.4465H42.9123V36.7506Z" fill="white"/>
<path d="M44.7462 37.335L44.5387 36.8409L44.3311 37.335H44.7462ZM45.3687 37.9763H45.0116L44.8717 37.6343H44.2153L44.0754 37.9763H43.7279L44.3939 36.4371H44.7076L45.3736 37.9763H45.3687Z" fill="white"/>
<path d="M46.5559 36.9738C46.5559 36.8978 46.5317 36.8456 46.4835 36.8076C46.4352 36.7696 46.3725 36.7506 46.2856 36.7506H45.9478V37.1876H46.2953C46.3773 37.1876 46.4401 37.1686 46.4883 37.1306C46.5366 37.0926 46.5607 37.0404 46.5607 36.9738H46.5559ZM46.9468 37.9762H46.5462L46.2132 37.4869H45.943V37.9762H45.6003V36.4465H46.3098C46.4931 36.4465 46.6379 36.494 46.7393 36.5843C46.8406 36.6746 46.8937 36.7981 46.8937 36.9548C46.8937 37.1924 46.7827 37.3539 46.5607 37.4347L46.942 37.981L46.9468 37.9762Z" fill="white"/>
<path d="M48.3319 37.525C48.3319 37.6723 48.2788 37.791 48.1726 37.8765C48.0713 37.9573 47.9313 38.0001 47.7576 38.0001C47.5018 38.0001 47.2846 37.9193 47.0964 37.7578L47.2991 37.5203C47.4536 37.6438 47.608 37.7055 47.7624 37.7055C47.83 37.7055 47.8879 37.6913 47.9265 37.6675C47.9651 37.639 47.9844 37.6058 47.9844 37.5583C47.9844 37.5107 47.9651 37.4775 47.9217 37.449C47.8782 37.4205 47.7962 37.392 47.6707 37.3587C47.5839 37.335 47.5115 37.316 47.4536 37.297C47.4005 37.2732 47.3474 37.2447 47.2943 37.2115C47.246 37.1782 47.2074 37.1354 47.1833 37.0832C47.1592 37.0309 47.1495 36.9692 47.1495 36.8932C47.1495 36.7507 47.1978 36.6414 47.2991 36.5559C47.4005 36.4704 47.5308 36.4276 47.69 36.4276C47.912 36.4276 48.1051 36.4941 48.2691 36.6224L48.0906 36.8742C47.9458 36.7744 47.8107 36.7222 47.6852 36.7222C47.6225 36.7222 47.5742 36.7364 47.5356 36.7602C47.5018 36.7839 47.4825 36.8172 47.4825 36.8552C47.4825 36.9074 47.5018 36.9454 47.5452 36.9692C47.5887 36.9929 47.6804 37.0214 47.8155 37.0594C47.9844 37.1022 48.1099 37.1592 48.1871 37.2257C48.2691 37.2922 48.3077 37.3872 48.3077 37.5155L48.3319 37.525Z" fill="white"/>
<path d="M49.8135 37.9762H48.6311V36.4465H49.799V36.7458H48.9689V37.0546H49.7025V37.3539H48.9689V37.6769H49.8135V37.9762Z" fill="white"/>
<path d="M51.4977 37.9762H51.2033L50.4504 37.0024V37.9762H50.1174V36.4465H50.4311L51.1598 37.3871V36.4465H51.4977V37.9762Z" fill="white"/>
<path d="M52.7621 37.335L52.5546 36.8409L52.3471 37.335H52.7621ZM53.3798 37.9763H53.0227L52.8828 37.6343H52.2264L52.0865 37.9763H51.739L52.405 36.4371H52.7187L53.3847 37.9763H53.3798Z" fill="white"/>
<path d="M54.7359 37.9762H53.6211V36.4465H53.9637V37.6674H54.7359V37.9762Z" fill="white"/>
<path d="M56.8449 36.7506H56.0004V37.0784H56.7436V37.3824H56.0004V37.9762H55.6577V36.4465H56.8449V36.7506Z" fill="white"/>
<path d="M58.3409 37.2162C58.3409 37.0784 58.2975 36.9644 58.2058 36.8694C58.1141 36.7744 58.0031 36.7316 57.868 36.7316C57.7328 36.7316 57.6218 36.7791 57.535 36.8694C57.4481 36.9596 57.4047 37.0737 57.4047 37.2067C57.4047 37.3444 57.4481 37.4585 57.5398 37.5535C57.6267 37.6485 57.7425 37.6912 57.8776 37.6912C58.0127 37.6912 58.1237 37.6437 58.2106 37.5535C58.2975 37.4632 58.3409 37.3492 58.3409 37.2162ZM58.698 37.2114C58.698 37.43 58.6208 37.62 58.4615 37.772C58.3071 37.924 58.1092 38 57.8728 38C57.6363 38 57.4384 37.924 57.284 37.772C57.1296 37.62 57.0524 37.4347 57.0524 37.2114C57.0524 36.9882 57.1296 36.8029 57.2888 36.6461C57.4481 36.4941 57.646 36.4133 57.8824 36.4133C58.1189 36.4133 58.3168 36.4893 58.4712 36.6414C58.6256 36.7934 58.7077 36.9787 58.7077 37.1972L58.698 37.2114Z" fill="white"/>
<path d="M60.2279 37.2162C60.2279 37.0784 60.1844 36.9644 60.0927 36.8694C60.001 36.7744 59.89 36.7316 59.7549 36.7316C59.6198 36.7316 59.5088 36.7791 59.4219 36.8694C59.3351 36.9596 59.2916 37.0737 59.2916 37.2067C59.2916 37.3444 59.3351 37.4585 59.4268 37.5535C59.5136 37.6485 59.6294 37.6912 59.7646 37.6912C59.8997 37.6912 60.0107 37.6437 60.0976 37.5535C60.1844 37.4632 60.2279 37.3492 60.2279 37.2162ZM60.585 37.2114C60.585 37.43 60.5078 37.62 60.3485 37.772C60.1941 37.924 59.9962 38 59.7597 38C59.5233 38 59.3254 37.924 59.171 37.772C59.0165 37.62 58.9393 37.4347 58.9393 37.2114C58.9393 36.9882 59.0165 36.8029 59.1758 36.6461C59.3351 36.4941 59.5329 36.4133 59.7694 36.4133C60.0059 36.4133 60.2037 36.4893 60.3582 36.6414C60.5126 36.7934 60.5946 36.9787 60.5946 37.1972L60.585 37.2114Z" fill="white"/>
<path d="M61.9942 36.7553H61.5212V37.9762H61.1786V36.7553H60.7104V36.4465H61.9942V36.7553Z" fill="white"/>
<path d="M63.2392 37.5154C63.2392 37.4014 63.1572 37.3444 62.9882 37.3444H62.5925V37.6817H62.9979C63.1571 37.6817 63.2392 37.6247 63.2392 37.5154ZM63.1523 36.9026C63.1523 36.8456 63.133 36.8076 63.0944 36.7838C63.0558 36.7553 63.0027 36.7411 62.9303 36.7411H62.5925V37.0641H62.9062C63.0703 37.0641 63.1523 37.0119 63.1523 36.9026ZM63.577 37.5582C63.577 37.6959 63.5239 37.8005 63.4226 37.8717C63.3212 37.943 63.1765 37.981 62.9979 37.981H62.2595V36.4513H62.9786C63.1378 36.4513 63.2633 36.4893 63.355 36.5606C63.4467 36.6318 63.495 36.7268 63.495 36.8503C63.495 36.9976 63.4274 37.1069 63.2923 37.1829C63.3888 37.2209 63.4612 37.2684 63.5094 37.3254C63.5577 37.3824 63.5818 37.4632 63.5818 37.5582H63.577Z" fill="white"/>
<path d="M64.7497 37.335L64.5422 36.8409L64.3347 37.335H64.7497ZM65.3723 37.9763H65.0151L64.8752 37.6343H64.2189L64.0789 37.9763H63.7314L64.3974 36.4371H64.7111L65.3771 37.9763H65.3723Z" fill="white"/>
<path d="M66.7284 37.9762H65.6136V36.4465H65.9515V37.6674H66.7284V37.9762Z" fill="white"/>
<path d="M68.1037 37.9762H66.9841V36.4465H67.3268V37.6674H68.1037V37.9762Z" fill="white"/>
<path d="M70.3913 37.7293C70.3044 37.8195 70.2127 37.886 70.1162 37.9335C70.0197 37.981 69.899 38 69.7591 38C69.5322 38 69.3392 37.924 69.1896 37.772C69.04 37.62 68.9628 37.4347 68.9628 37.2114C68.9628 36.9834 69.04 36.7981 69.1896 36.6461C69.3392 36.4941 69.5371 36.4181 69.7687 36.4181C69.9087 36.4181 70.0245 36.4371 70.121 36.4798C70.2175 36.5179 70.3044 36.5796 70.3816 36.6556L70.1644 36.9026C70.0341 36.7886 69.9038 36.7316 69.7687 36.7316C69.6384 36.7316 69.5322 36.7791 69.4454 36.8694C69.3585 36.9597 69.3151 37.0737 69.3151 37.2067C69.3151 37.3445 69.3585 37.4585 69.4405 37.5535C69.5274 37.6485 69.6336 37.6912 69.7639 37.6912C69.8459 37.6912 69.9183 37.677 69.981 37.6485C70.0438 37.62 70.1065 37.5725 70.1741 37.5107L70.3913 37.7293Z" fill="white"/>
<path d="M71.7811 37.9762H70.6615V36.4465H71.0041V37.6674H71.7811V37.9762Z" fill="white"/>
<path d="M73.3207 37.3112C73.3207 37.5392 73.258 37.7102 73.1373 37.829C73.0167 37.9477 72.8526 38.0047 72.6402 38.0047C72.4279 38.0047 72.2638 37.9477 72.1432 37.8337C72.0225 37.715 71.9646 37.5487 71.9646 37.3254V36.4513H72.3072V37.3159C72.3072 37.4394 72.3362 37.5344 72.3941 37.5962C72.452 37.6579 72.5341 37.6912 72.6402 37.6912C72.7464 37.6912 72.8284 37.6579 72.8864 37.5962C72.9443 37.5344 72.9732 37.4442 72.9732 37.3254V36.4513H73.3159V37.3159L73.3207 37.3112Z" fill="white"/>
<path d="M74.6526 37.5154C74.6526 37.4014 74.5706 37.3444 74.4017 37.3444H74.006V37.6817H74.4113C74.5706 37.6817 74.6526 37.6247 74.6526 37.5154ZM74.5658 36.9026C74.5658 36.8456 74.5465 36.8076 74.5079 36.7838C74.4693 36.7553 74.4162 36.7411 74.3438 36.7411H74.006V37.0641H74.3196C74.4837 37.0641 74.5658 37.0119 74.5658 36.9026ZM74.9905 37.5582C74.9905 37.6959 74.9374 37.8005 74.836 37.8717C74.7347 37.943 74.5899 37.981 74.4113 37.981H73.673V36.4513H74.392C74.5513 36.4513 74.6768 36.4893 74.7685 36.5606C74.8602 36.6318 74.9084 36.7268 74.9084 36.8503C74.9084 36.9976 74.8409 37.1069 74.7057 37.1829C74.8022 37.2209 74.8746 37.2684 74.9229 37.3254C74.9712 37.3824 74.9953 37.4632 74.9953 37.5582H74.9905Z" fill="white"/>
<path d="M27.228 25.6152C27.0446 25.2589 26.1518 24.4513 26.0022 24.3373C22.32 21.5724 18.1263 20.1568 17.4989 15.0499L17.412 14.323C16.9536 11.1211 18.6523 10.4845 17.2528 11.0784C10.5109 13.962 10.2117 5.78146 8.34891 1.92873C7.21964 -0.413315 3.96213 -0.565334 3.35888 1.56293C1.92558 6.60331 10.1635 8.68882 11.1769 12.6651C11.4423 13.7102 10.7233 14.7601 9.64226 14.9169C6.80943 15.3254 3.34441 13.9335 0.979692 15.2731C0.0482851 15.8005 -0.299183 17.0071 0.318538 17.8812C1.88214 20.0855 6.56331 16.2138 9.51196 15.924C10.1635 15.8622 10.7957 16.152 11.1817 16.6746C13.17 19.3872 10.3469 21.2256 8.20413 23.0499C7.92423 23.2874 6.47644 24.5083 6.40405 24.5653C3.85596 26.437 3.54709 31.6627 7.55263 31.0689C7.81806 31.0309 8.16552 30.9216 8.38752 30.7743C12.1276 28.2898 10.5785 22.6888 12.7695 19.1829C12.8322 19.0831 12.9722 18.8646 13.0928 18.7696C14.7529 17.5012 16.0849 17.8242 17.4362 18.8313C17.5134 18.8883 17.5858 18.9549 17.6533 19.0261C19.7333 21.1971 20.4765 24.152 22.2766 26.5178C23.2032 27.6199 25.5051 28.7981 26.6392 28.0807C27.7733 27.3587 27.5803 26.2945 27.228 25.6104V25.6152ZM10.3662 17.5202C10.3517 16.8266 9.07763 16.8123 9.0728 17.4679C9.20793 18.2138 10.3034 18.38 10.3662 17.5202ZM18.5606 10.1093C18.6668 10.076 19.2845 6.59381 20.2207 5.2684C21.4176 3.57718 23.9801 3.36341 24.6799 5.07837C24.8536 5.50592 24.8633 5.98098 24.7619 6.42754C24.2118 8.83609 20.6454 9.45842 18.5606 10.1093Z" fill="white"/>
</g>
<defs>
<clipPath id="clip0_6147_1819">
<rect width="75" height="38" fill="white"/>
</clipPath>
</defs>
</svg>
