<svg width="97" height="97" viewBox="0 0 97 97" fill="none" xmlns="http://www.w3.org/2000/svg">
<rect x="3" y="3" width="91" height="91" rx="45.5" fill="white"/>
<rect x="3" y="3" width="91" height="91" rx="45.5" stroke="#0F4987" stroke-width="6"/>
<path fill-rule="evenodd" clip-rule="evenodd" d="M70.3569 26.4345C71.6586 27.7362 71.6586 29.8468 70.3569 31.1485L30.3569 71.1485C29.0551 72.4503 26.9446 72.4503 25.6428 71.1485C24.3411 69.8468 24.3411 67.7362 25.6428 66.4345L65.6428 26.4345C66.9446 25.1328 69.0551 25.1328 70.3569 26.4345Z" fill="#FE1427"/>
<path fill-rule="evenodd" clip-rule="evenodd" d="M25.6428 26.4345C26.9446 25.1328 29.0551 25.1328 30.3569 26.4345L70.3569 66.4345C71.6586 67.7362 71.6586 69.8468 70.3569 71.1485C69.0551 72.4503 66.9446 72.4503 65.6428 71.1485L25.6428 31.1485C24.3411 29.8468 24.3411 27.7362 25.6428 26.4345Z" fill="#FE1427"/>
</svg>
