<svg width="22" height="24" viewBox="0 0 22 24" fill="none" xmlns="http://www.w3.org/2000/svg">
<path d="M8.79685 12.3425H3.68604V22.9994H18.314V12.3425H13.2002" stroke="#6C6C6C" stroke-width="2" stroke-linecap="round" stroke-linejoin="round"/>
<path d="M13.4262 12.3418H21V6.77856H1V12.3418H8.55027" stroke="#6C6C6C" stroke-width="2" stroke-linecap="round" stroke-linejoin="round"/>
<path d="M13.837 1C15.4016 1 16.6727 2.29509 16.6727 3.88928C16.6727 5.48348 15.4016 6.77857 13.837 6.77857H11.0012V3.88928C11.0012 2.29509 12.2723 1 13.837 1Z" stroke="#6C6C6C" stroke-width="2" stroke-linecap="round" stroke-linejoin="round"/>
<path d="M10.9985 6.77905H8.16278C6.59812 6.77905 5.32703 5.48396 5.32703 3.88977C5.32703 2.29558 6.59812 1.00048 8.16278 1.00048C9.72744 1.00048 10.9985 2.29558 10.9985 3.88977V6.77905Z" stroke="#6C6C6C" stroke-width="2" stroke-linecap="round" stroke-linejoin="round"/>
<path d="M13.2002 6.77905H8.79688V22.9991H13.2002V6.77905Z" stroke="#6C6C6C" stroke-width="2" stroke-linecap="round" stroke-linejoin="round"/>
</svg>
