<svg width="22" height="23" viewBox="0 0 22 23" fill="none" xmlns="http://www.w3.org/2000/svg">
<g id="Frame" clip-path="url(#clip0_2031_781)">
<g id="Layer 2">
<path id="Vector" d="M15.9047 21.2743C18.5701 21.2743 20.7308 19.172 20.7308 16.5786C20.7308 13.9853 18.5701 11.883 15.9047 11.883C13.2393 11.883 11.0786 13.9853 11.0786 16.5786C11.0786 19.172 13.2393 21.2743 15.9047 21.2743Z" stroke="white" stroke-width="2" stroke-miterlimit="10"/>
</g>
<g id="Layer 4">
<path id="Vector_2" d="M14.5832 11.2749C14.5832 11.8271 15.0309 12.2749 15.5832 12.2749C16.1355 12.2749 16.5832 11.8271 16.5832 11.2749H14.5832ZM15.4064 6.58328L16.1329 5.89615L16.1323 5.8955L15.4064 6.58328ZM10.7252 1.64242L9.99861 2.32954L9.99923 2.3302L10.7252 1.64242ZM10.3042 1.45547L10.297 2.45547H10.3042V1.45547ZM1.51428 1.42876V2.42876H1.52381L1.53333 2.42858L1.51428 1.42876ZM16.5832 11.2749V7.0373H14.5832V11.2749H16.5832ZM16.5832 7.0373C16.5832 6.6203 16.4232 6.2031 16.1329 5.89615L14.6798 7.2704C14.6395 7.22774 14.6173 7.18713 14.6047 7.15506C14.592 7.1225 14.5832 7.08362 14.5832 7.0373H16.5832ZM16.1323 5.8955L11.4511 0.954645L9.99923 2.3302L14.6804 7.27105L16.1323 5.8955ZM11.4517 0.955298C11.1706 0.658126 10.7632 0.45547 10.3042 0.45547V2.45547C10.1651 2.45547 10.0608 2.39525 9.99861 2.32954L11.4517 0.955298ZM10.3113 0.455495C9.07856 0.446688 3.38168 0.393004 1.49524 0.428944L1.53333 2.42858C3.38512 2.3933 9.03765 2.44645 10.297 2.45544L10.3113 0.455495ZM1.51428 0.428762C0.564324 0.428762 -0.0834961 1.24222 -0.0834961 2.06974H1.9165C1.9165 2.15518 1.88386 2.23612 1.82536 2.29917C1.76575 2.36343 1.65806 2.42876 1.51428 2.42876V0.428762ZM-0.0834961 2.06974V19.109H1.9165V2.06974H-0.0834961ZM-0.0834961 19.109C-0.0834961 19.9641 0.581814 20.75 1.5227 20.75V18.75C1.79004 18.75 1.9165 18.9661 1.9165 19.109H-0.0834961ZM1.5227 20.75H12.3748V18.75H1.5227V20.75Z" fill="white"/>
<path id="Vector_3" d="M14.6966 7.73415C15.2489 7.73415 15.6966 7.28643 15.6966 6.73415C15.6966 6.18186 15.2489 5.73415 14.6966 5.73415V7.73415ZM8.1665 1.41666V6.08524H10.1665V1.41666H8.1665ZM8.1665 6.08524C8.1665 7.02369 8.93666 7.73415 9.83345 7.73415V5.73415C9.98919 5.73415 10.1665 5.8678 10.1665 6.08524H8.1665ZM9.83345 7.73415H14.6966V5.73415H9.83345V7.73415Z" fill="white"/>
<path id="Vector_4" d="M5 9.5H12" stroke="white" stroke-width="2" stroke-miterlimit="10" stroke-linecap="round"/>
<path id="Vector_5" d="M5 12.5H9" stroke="white" stroke-width="2" stroke-miterlimit="10" stroke-linecap="round"/>
<path id="Vector_6" d="M5 15.5H7" stroke="white" stroke-width="2" stroke-miterlimit="10" stroke-linecap="round"/>
<path id="Vector_7" d="M14 16.8751L15.0485 17.91L17.4951 15.5" stroke="white" stroke-width="2" stroke-linecap="round" stroke-linejoin="round"/>
</g>
</g>
<defs>
<clipPath id="clip0_2031_781">
<rect width="22" height="22" fill="white" transform="translate(0 0.5)"/>
</clipPath>
</defs>
</svg>
