<svg width="45" height="80" viewBox="0 0 45 80" fill="none" xmlns="http://www.w3.org/2000/svg">
<path d="M38.6631 4.35059C39.1072 4.5898 39.6419 4.58978 40.0859 4.35059L43.5 2.51074V77.4883L40.0869 75.6494C39.6984 75.4401 39.2408 75.4144 38.835 75.5713L38.6641 75.6494L33.75 78.2959L28.8369 75.6494C28.4484 75.4401 27.9908 75.4144 27.585 75.5713L27.4141 75.6494L22.5 78.2959L17.5869 75.6494C17.1984 75.4401 16.7408 75.4144 16.335 75.5713L16.1641 75.6494L11.25 78.2959L6.33691 75.6494C5.94841 75.4401 5.4908 75.4144 5.08496 75.5713L4.91406 75.6494L1.5 77.4883V2.51074L4.91309 4.35059C5.35718 4.58983 5.89184 4.58982 6.33594 4.35059L11.249 1.70312L16.1631 4.35059C16.6072 4.58981 17.1419 4.58981 17.5859 4.35059L22.499 1.70312L27.4131 4.35059C27.8572 4.58981 28.3919 4.58981 28.8359 4.35059L33.749 1.70312L38.6631 4.35059Z" stroke="white" stroke-width="3" stroke-linejoin="round"/>
<path d="M20.9953 42.6232C20.9953 41.803 21.1498 41.1173 21.4587 40.566C21.7677 40.0148 22.2916 39.4837 23.0304 38.9728C23.5677 38.5963 23.9707 38.3005 24.2393 38.0854C24.508 37.8568 24.7162 37.6081 24.864 37.3391C25.0252 37.0568 25.1058 36.7274 25.1058 36.3509C25.1058 35.7459 24.864 35.2686 24.3804 34.919C23.8968 34.5694 23.1983 34.3946 22.2849 34.3946C20.9416 34.3946 19.699 34.6635 18.5573 35.2013V33.4265C19.0946 33.198 19.6789 33.0165 20.3102 32.882C20.955 32.7341 21.6132 32.6602 22.2849 32.6602C23.7625 32.6602 24.9378 32.9896 25.811 33.6484C26.6841 34.3072 27.1207 35.2081 27.1207 36.3509C27.1207 37.0501 26.9393 37.6484 26.5767 38.1459C26.214 38.6433 25.6431 39.1744 24.864 39.7391C24.2998 40.1425 23.8968 40.4652 23.655 40.7072C23.4132 40.9358 23.2386 41.198 23.1311 41.4938C23.0237 41.7761 22.9699 42.1593 22.9699 42.6433V43.0467H20.9953V42.6232ZM21.9625 47.3627C21.6267 47.3627 21.3446 47.2484 21.1162 47.0198C20.8878 46.7912 20.7737 46.5089 20.7737 46.1728C20.7737 45.8366 20.8878 45.5543 21.1162 45.3257C21.3446 45.0971 21.6267 44.9828 21.9625 44.9828C22.2983 44.9828 22.5804 45.0971 22.8087 45.3257C23.0505 45.5543 23.1714 45.8366 23.1714 46.1728C23.1714 46.5089 23.0505 46.7912 22.8087 47.0198C22.5804 47.2484 22.2983 47.3627 21.9625 47.3627Z" fill="white"/>
</svg>
